<svg width="507" height="499" viewBox="0 0 507 499" fill="none" xmlns="http://www.w3.org/2000/svg">
<path d="M16.09 475.877L0 499L506.41 498.429V304.881L480.44 287.182L455.6 276.049L435.558 267.485L403.096 274.336L362.73 284.042L338.736 270.625H319.541L311.072 249.5L305.991 227.804L304.298 210.391L302.322 199.257L300.346 196.117L296.394 191.55L294.7 184.984L300.346 186.126L305.991 184.984L311.072 176.42L315.589 170.425L317 164.43L320.952 151.299L326.033 133.6L320.952 123.037L319.258 116.471L317 107.907L323.493 100.485L317 88.4954L320.952 80.2168L319.258 68.7981L312.766 57.3793L306.556 52.2408L302.322 46.246L306.556 41.6785L299.781 39.1093L296.676 46.246L291.595 43.3913L280.304 36.54L278.892 22.2666L268.73 18.27L265.625 27.1196H263.649L256.028 22.2666L250.382 14.5589V1.99828H239.938L223.001 0L219.614 9.99142L213.121 7.99314L206.629 11.9897L198.16 9.99142L183.764 11.9897L175.013 20.8392H167.674L155.536 27.1196V35.3982L158.641 33.6854L160.053 36.54L149.326 39.1093L143.68 41.6785L140.011 48.8152V52.2408L143.68 48.8152L147.632 52.2408L145.939 55.6665V63.0887V76.2203L138.317 80.7878L132.954 90.7792L127.873 94.2048L119.687 105.624L122.509 118.755H130.696L135.777 125.321L132.954 128.747V139.309L138.317 145.875L144.245 147.302L147.35 155.866L152.149 161.29L154.407 167.856L152.149 176.705L155.536 186.697L159.77 194.69L158.359 198.401L165.416 200.399L168.521 198.401L171.626 206.68V212.96L173.32 219.24L170.497 222.666V241.221L173.32 254.068L174.731 282.9L167.11 284.042L153.842 293.177L145.656 292.32L135.494 298.315L131.825 293.177L119.404 290.893L97.3865 292.32L74.8042 297.459L51.3749 312.018L53.0686 322.295L50.2458 325.72L51.3749 330.288L39.5192 345.703L34.1559 385.669L36.9787 389.38L45.1648 390.807L50.2458 395.089L41.2129 411.361L23.1469 448.472L16.09 475.877Z" fill="#BF0000"/>
</svg>
