<svg width="325" height="409" viewBox="0 0 325 409" fill="none" xmlns="http://www.w3.org/2000/svg">
<path d="M3.02676 235.709L0 238.736V408.109H324.242V115.9L311.252 120.188L293.974 127.629L269.256 141.501L262.95 137.97L256.14 136.835L250.591 137.97L243.15 145.411L238.862 152.095L233.565 154.869V147.807L234.574 147.176V145.411V142.258L233.565 139.988L228.899 138.979C229.614 137.129 231.043 133.127 231.043 131.916C231.043 130.706 231.884 126.704 232.304 124.854H234.574L235.331 119.431L234.574 112.621L237.223 113.756L241.384 110.855L240.502 100.766L242.267 97.9915L243.15 94.208L244.033 89.1634L243.15 85.7583L245.168 83.9927V81.7226L243.15 73.7774L241.384 64.6971L236.34 54.1034L237.979 52.59V48.4282L230.665 38.9696L227.133 31.5288V28.6281L219.188 20.4307L212.378 15.8905L214.017 13.6204L211.621 8.3236L203.928 2.39619H196.235L189.929 0.882806L185.137 0L178.705 2.39619L174.67 0L168.49 3.40511L163.319 0.882806L161.427 2.39619L153.861 4.28792L150.582 8.3236L135.7 17.9084L134.313 25.4753L116.657 36.1951L114.891 41.618L116.657 44.0142L112.873 47.5454L111.36 52.0856L108.207 53.4728V60.0308L105.306 67.5977L106.315 73.5252L104.423 76.0475V84.1188L103.288 85.2539V87.3978L102.279 90.1724V96.9826L105.306 102.406C104.97 104.003 104.322 107.349 104.423 107.955C104.524 108.56 105.727 111.738 106.315 113.251L103.288 119.557L110.477 122.71L112.873 124.35V126.241V132.169L111.36 133.934L112.873 135.826L113.882 139.736L117.918 142.006L122.584 142.762L123.467 148.564V153.861L124.728 155.248L123.467 168.868L124.728 174.67V177.57L123.467 184.633L124.728 189.425V198.001L120.692 199.01L109.342 208.342L104.928 209.351L80.5876 223.981L77.5608 221.837L66.5888 226.251L61.9226 223.098H59.7786L56.3735 218.936H51.2028L49.1849 218.179L46.7887 218.936L45.0231 218.179L42.753 220.197L38.5912 218.936L32.4116 221.08L28.7543 221.837L25.0969 223.098H22.1963L12.6115 226.251L4.28792 231.674L3.02676 235.709Z" fill="#C30000"/>
</svg>
